<svg width="24" height="24" version="1.1" viewBox="0 0 6.35 6.35" xmlns="http://www.w3.org/2000/svg"><g transform="translate(0 -290.65)"><path d="m3.175 290.65c-1.7542 0-3.175 1.4216-3.175 3.175 0 1.4031 0.90964 2.5929 2.1709 3.0123 0.15875 0.0299 0.21696-0.0683 0.21696-0.15266 0-0.0754-0.0027-0.27517-4e-3 -0.53975-0.88318 0.19156-1.0694-0.42598-1.0694-0.42598-0.14446-0.36645-0.35322-0.46435-0.35322-0.46435-0.2876-0.19685 0.02223-0.19288 0.02223-0.19288 0.31882 0.0222 0.4863 0.32703 0.4863 0.32703 0.2831 0.48551 0.74322 0.34528 0.92472 0.26405 0.02858-0.20532 0.11033-0.34528 0.20108-0.42465-0.70511-0.0794-1.4462-0.35243-1.4462-1.569 0-0.34661 0.12303-0.62971 0.32676-0.85196-0.03572-0.0802-0.14288-0.40296 0.02778-0.84032 0 0 0.26591-0.0852 0.87312 0.32544 0.254-0.0707 0.52388-0.10557 0.79375-0.10716 0.26988 2e-3 0.53975 0.0365 0.79375 0.10716 0.60325-0.41063 0.86916-0.32544 0.86916-0.32544 0.17066 0.43736 0.0635 0.76015 0.03175 0.84032 0.20241 0.22225 0.32544 0.50535 0.32544 0.85196 0 1.2197-0.74216 1.4883-1.4486 1.5663 0.11112 0.0953 0.21431 0.28998 0.21431 0.58737 0 0.42493-0.00397 0.76624-0.00397 0.86943 0 0.0833 0.055562 0.18256 0.21828 0.15081 1.2703-0.41646 2.1791-1.6071 2.1791-3.008 0-1.7534-1.4216-3.175-3.175-3.175" stroke-width=".26458"/></g></svg>
